<svg xmlns="http://www.w3.org/2000/svg" width="358" height="60" viewBox="0 0 358 60">
  <g id="Group_46" data-name="Group 46" transform="translate(-36 -367)">
    <rect id="Rectangle_3" data-name="Rectangle 3" width="358" height="60" rx="30" transform="translate(36 367)" fill="#ffd800"/>
    <text id="Start" transform="translate(208.078 402)" font-size="16" font-family="'Baloo Bhaijaan \32 '" font-weight="600"><tspan x="0" y="0">Start</tspan></text>
    <path id="tennis" d="M6.172.053a5.6,5.6,0,0,1,5.05,5.05A4.366,4.366,0,0,1,6.172.053ZM3.9,7.377a4.339,4.339,0,0,0-3.841-1.2A5.6,5.6,0,0,0,5.1,11.219,4.341,4.341,0,0,0,3.9,7.377ZM10.48,6.1A5.3,5.3,0,0,1,5.231.047,5.582,5.582,0,0,0,.047,5.235a5.26,5.26,0,0,1,5.99,5.991,5.582,5.582,0,0,0,5.191-5.18,5.361,5.361,0,0,1-.748.058Z" transform="translate(185.875 392.364)"/>
  </g>
</svg>
