<svg xmlns="http://www.w3.org/2000/svg" width="52" height="18" viewBox="0 0 52 18">
  <g id="Group_48" data-name="Group 48" transform="translate(-65 -761)">
    <rect id="Rectangle_21" data-name="Rectangle 21" width="52" height="18" rx="9" transform="translate(65 761)" fill="#ff8900"/>
    <text id="Start" transform="translate(75 773)" font-size="10" font-family="'Baloo Bhaijaan \32 '" font-weight="700"><tspan x="0" y="0">Start</tspan></text>
    <g id="Group_47" data-name="Group 47" transform="translate(1786.864 -902.659) rotate(135)">
      <path id="Icon_awesome-arrow-left" data-name="Icon awesome-arrow-left" d="M3.416,8.057l-.295.295a.317.317,0,0,1-.45,0L.09,5.772a.317.317,0,0,1,0-.45L2.671,2.741a.317.317,0,0,1,.45,0l.295.295a.319.319,0,0,1-.005.455l-1.6,1.524H7.591a.318.318,0,0,1,.319.319v.425a.318.318,0,0,1-.319.319H1.811L3.411,7.6A.317.317,0,0,1,3.416,8.057Z" transform="translate(2369.574 2.485)"/>
    </g>
  </g>
</svg>
